<svg width="341" height="346" viewBox="0 0 341 346" fill="none" xmlns="http://www.w3.org/2000/svg">
<path d="M117.544 198.25C112.731 192.256 104.287 190.856 98.25 196.062C92.2081 200.901 91.2281 209.708 96.0625 215.75L104.314 229.12C108.225 233.994 107.831 240.994 103.412 245.412C98.2544 250.571 89.7625 250.098 85.2081 244.404L58 207.35V140.5C58 130.836 50.1644 123 40.5 123C30.8356 123 23 130.836 23 140.5V230.056C23 236.418 25.1652 242.591 29.1381 247.556L81.6819 313.75C84.7313 317.075 88.7563 319 92.6063 319H135C142.731 319 149.013 312.722 149.013 304.991L149 251.8C149 242.267 145.756 233.018 139.804 225.576L117.544 198.25ZM285.5 123C275.836 123 268 130.836 268 140.5V207.35L240.787 244.419C236.233 250.116 227.737 250.584 222.583 245.428C218.173 241.022 217.784 234.005 221.678 229.135L229.93 215.765C234.764 209.723 233.785 200.917 227.742 196.078C221.718 191.252 212.893 192.25 208.068 198.265L186.197 225.609C180.238 233.031 177 242.263 177 251.8L176.986 304.956C176.606 312.744 183.256 319 191 319H233.009C237.258 319 241.278 317.069 243.929 313.75L296.473 247.556C300.856 242.613 303 236.444 303 230.056V140.5C303 130.836 295.169 123 285.5 123Z" fill="white"/>
<path d="M194.234 124.936C206.306 116.305 215.297 103.008 215.297 86.6236C215.297 74.9071 210.875 63.6706 203.002 55.3859C195.129 47.1011 184.452 42.4468 173.318 42.4468C162.185 42.4468 151.507 47.1011 143.634 55.3859C135.762 63.6706 131.339 74.9071 131.339 86.6236V143.659C131.339 155.879 140.716 166.142 152.329 166.142C163.941 166.142 169.863 158.98 172.607 155.098C176.482 149.628 183.551 132.578 194.234 124.936Z" stroke="white" stroke-width="10" stroke-linecap="round" stroke-linejoin="round"/>
<path d="M148.131 117.547V84.4148C148.131 71.0513 159.465 60.1176 173.318 60.1176C187.171 60.1176 198.506 71.0513 198.506 84.4148" stroke="white" stroke-width="10" stroke-linecap="round" stroke-linejoin="round"/>
<path d="M148.131 99.6006C154.69 94.6307 169.073 95.459 169.073 95.459C175.895 95.459 179.875 103.582 175.895 109.43C175.895 109.43 166.224 121.137 164.912 126.383" stroke="white" stroke-width="10" stroke-linecap="round" stroke-linejoin="round"/>
<g clip-path="url(#clip0_110_19)">
<path d="M108.013 184.076C113.051 189.378 120.122 191.882 127.923 191.13C128.665 191.059 129.212 190.367 129.144 189.585C129.114 189.241 128.97 188.936 128.755 188.71C128.481 188.422 128.091 188.259 127.676 188.3C120.689 188.973 114.385 186.759 109.924 182.065C105.463 177.371 103.359 170.736 104 163.385C104.068 162.603 103.521 161.911 102.778 161.839C102.036 161.767 101.378 162.343 101.31 163.124C100.594 171.332 102.974 178.773 108.013 184.076Z" fill="white"/>
<path d="M112.793 179.046C116.569 183.019 121.861 184.897 127.695 184.334C128.438 184.262 128.985 183.571 128.916 182.788C128.849 182.007 128.19 181.431 127.448 181.503C122.428 181.987 117.902 180.4 114.704 177.035C111.505 173.669 109.997 168.906 110.458 163.624C110.496 163.186 110.341 162.776 110.068 162.488C109.852 162.262 109.564 162.11 109.237 162.078C108.494 162.007 107.837 162.582 107.768 163.364C107.232 169.502 109.017 175.072 112.793 179.046Z" fill="white"/>
<path d="M117.94 173.63C120.427 176.248 123.906 177.486 127.736 177.116C128.479 177.044 129.025 176.353 128.957 175.571C128.927 175.227 128.783 174.923 128.568 174.696C128.294 174.407 127.904 174.245 127.489 174.286C124.473 174.576 121.759 173.63 119.849 171.62C117.939 169.61 117.04 166.755 117.317 163.581C117.385 162.799 116.838 162.108 116.096 162.035C115.353 161.963 114.696 162.539 114.627 163.321C114.275 167.351 115.451 171.012 117.94 173.63Z" fill="white"/>
<path d="M122.534 168.795C123.708 170.03 125.343 170.547 127.037 170.384L125.983 165.165L121.025 164.056C120.869 165.839 121.36 167.56 122.534 168.795Z" fill="white"/>
</g>
<g clip-path="url(#clip1_110_19)">
<path d="M230.983 32.1658C225.945 26.864 218.874 24.3593 211.074 25.112C210.331 25.1832 209.784 25.8748 209.852 26.657C209.882 27.0008 210.026 27.3053 210.241 27.5319C210.515 27.8201 210.905 27.9826 211.321 27.9419C218.307 27.2689 224.612 29.4823 229.072 34.1763C233.533 38.8712 235.637 45.5059 234.996 52.8571C234.928 53.6392 235.475 54.3309 236.218 54.4028C236.96 54.4747 237.618 53.8984 237.686 53.1178C238.402 44.9095 236.022 37.4687 230.983 32.1658Z" fill="white"/>
<path d="M226.203 37.1958C222.427 33.2228 217.135 31.3452 211.302 31.9076C210.558 31.9796 210.011 32.6712 210.08 33.4534C210.147 34.2348 210.806 34.8103 211.548 34.7385C216.568 34.2549 221.094 35.8413 224.292 39.2066C227.491 42.5731 228.999 47.3353 228.538 52.618C228.5 53.0559 228.655 53.4652 228.929 53.7535C229.144 53.9798 229.433 54.1322 229.759 54.1634C230.502 54.235 231.159 53.6594 231.228 52.8775C231.764 46.7399 229.979 41.17 226.203 37.1958Z" fill="white"/>
<path d="M221.057 42.6114C218.569 39.9938 215.09 38.7559 211.26 39.1258C210.517 39.1976 209.971 39.8886 210.039 40.6707C210.069 41.015 210.213 41.3191 210.428 41.5457C210.702 41.8342 211.092 41.9967 211.508 41.9561C214.524 41.6655 217.237 42.6113 219.147 44.6213C221.057 46.6316 221.956 49.4871 221.68 52.6606C221.611 53.4427 222.158 54.134 222.9 54.2063C223.643 54.2783 224.3 53.7026 224.369 52.9209C224.721 48.8905 223.545 45.2298 221.057 42.6114Z" fill="white"/>
<path d="M216.462 47.4467C215.288 46.2115 213.653 45.6948 211.959 45.8579L213.014 51.0763L217.972 52.1856C218.127 50.4031 217.636 48.6822 216.462 47.4467Z" fill="white"/>
</g>
<defs>
<clipPath id="clip0_110_19">
<rect width="45" height="45" fill="white" transform="matrix(-0.688846 -0.724907 0.688846 -0.724907 116.998 207.242)"/>
</clipPath>
<clipPath id="clip1_110_19">
<rect width="45" height="45" fill="white" transform="matrix(0.688846 0.724908 -0.688846 0.724908 221.998 9)"/>
</clipPath>
</defs>
</svg>
